<svg width="258" height="20" viewBox="0 0 258 20" fill="none" xmlns="http://www.w3.org/2000/svg">
<path d="M24.2273 0H1.77273C0.768182 0 0 0.764706 0 1.76471V18.2353C0 19.2353 0.768182 20 1.77273 20H24.2273C25.2318 20 26 19.2353 26 18.2353V1.76471C26 0.764706 25.2318 0 24.2273 0ZM24.2273 17L19.5591 12.3529C19.2045 12 18.6727 12 18.3182 12.3529C17.9636 12.7059 17.9636 13.2353 18.3182 13.5882L22.9864 18.2353H3.01362L7.68182 13.5882C8.03636 13.2353 8.03636 12.7059 7.68182 12.3529C7.32727 12 6.79547 12 6.44092 12.3529L1.77273 17V5.70585L12.4091 13.7059C12.5864 13.8236 12.7636 13.8823 12.9409 13.8823C13.1182 13.8823 13.2954 13.8236 13.4727 13.7059L24.2273 5.70585V17ZM24.2273 1.76471V3.4706L12.9409 11.8235L1.77273 3.4706V1.76471H24.2273Z"/>
<path d="M46.18 8.58C46.8707 8.58 47.496 8.73867 48.056 9.056C48.616 9.364 49.0547 9.80267 49.372 10.372C49.6893 10.9413 49.848 11.59 49.848 12.318C49.848 13.0553 49.6893 13.7087 49.372 14.278C49.0547 14.8473 48.616 15.2907 48.056 15.608C47.5053 15.916 46.88 16.07 46.18 16.07C45.5827 16.07 45.0413 15.9487 44.556 15.706C44.08 15.454 43.688 15.09 43.38 14.614V18.716H42.386V8.636H43.338V10.092C43.6367 9.60667 44.0287 9.23333 44.514 8.972C45.0087 8.71067 45.564 8.58 46.18 8.58ZM46.11 15.188C46.6233 15.188 47.09 15.0713 47.51 14.838C47.93 14.5953 48.2567 14.2547 48.49 13.816C48.7327 13.3773 48.854 12.878 48.854 12.318C48.854 11.758 48.7327 11.2633 48.49 10.834C48.2567 10.3953 47.93 10.0547 47.51 9.812C47.09 9.56933 46.6233 9.448 46.11 9.448C45.5873 9.448 45.116 9.56933 44.696 9.812C44.2853 10.0547 43.9587 10.3953 43.716 10.834C43.4827 11.2633 43.366 11.758 43.366 12.318C43.366 12.878 43.4827 13.3773 43.716 13.816C43.9587 14.2547 44.2853 14.5953 44.696 14.838C45.116 15.0713 45.5873 15.188 46.11 15.188ZM58.5103 8.636V16H57.5583V14.656C57.2969 15.104 56.9376 15.454 56.4803 15.706C56.0229 15.9487 55.5003 16.07 54.9123 16.07C53.9509 16.07 53.1903 15.804 52.6303 15.272C52.0796 14.7307 51.8043 13.942 51.8043 12.906V8.636H52.7983V12.808C52.7983 13.5827 52.9896 14.1707 53.3723 14.572C53.7549 14.9733 54.3009 15.174 55.0103 15.174C55.7849 15.174 56.3963 14.9407 56.8443 14.474C57.2923 13.998 57.5163 13.34 57.5163 12.5V8.636H58.5103ZM65.1722 15.552C64.9855 15.72 64.7522 15.8507 64.4722 15.944C64.2015 16.028 63.9169 16.07 63.6182 16.07C62.9275 16.07 62.3955 15.8833 62.0222 15.51C61.6489 15.1367 61.4622 14.6093 61.4622 13.928V9.476H60.1462V8.636H61.4622V7.026H62.4562V8.636H64.6962V9.476H62.4562V13.872C62.4562 14.3107 62.5635 14.6467 62.7782 14.88C63.0022 15.104 63.3195 15.216 63.7302 15.216C63.9355 15.216 64.1315 15.1833 64.3182 15.118C64.5142 15.0527 64.6822 14.9593 64.8222 14.838L65.1722 15.552ZM73.1339 12.626H66.9739C67.0299 13.3913 67.3239 14.012 67.8559 14.488C68.3879 14.9547 69.0599 15.188 69.8719 15.188C70.3293 15.188 70.7493 15.1087 71.1319 14.95C71.5146 14.782 71.8459 14.5393 72.1259 14.222L72.6859 14.866C72.3593 15.258 71.9486 15.5567 71.4539 15.762C70.9686 15.9673 70.4319 16.07 69.8439 16.07C69.0879 16.07 68.4159 15.9113 67.8279 15.594C67.2493 15.2673 66.7966 14.8193 66.4699 14.25C66.1433 13.6807 65.9799 13.0367 65.9799 12.318C65.9799 11.5993 66.1339 10.9553 66.4419 10.386C66.7593 9.81667 67.1886 9.37333 67.7299 9.056C68.2806 8.73867 68.8966 8.58 69.5779 8.58C70.2593 8.58 70.8706 8.73867 71.4119 9.056C71.9533 9.37333 72.3779 9.81667 72.6859 10.386C72.9939 10.946 73.1479 11.59 73.1479 12.318L73.1339 12.626ZM69.5779 9.434C68.8686 9.434 68.2713 9.66267 67.7859 10.12C67.3099 10.568 67.0393 11.156 66.9739 11.884H72.1959C72.1306 11.156 71.8553 10.568 71.3699 10.12C70.8939 9.66267 70.2966 9.434 69.5779 9.434ZM77.1452 16.07C76.5478 16.07 75.9738 15.986 75.4232 15.818C74.8818 15.6407 74.4572 15.4213 74.1492 15.16L74.5972 14.376C74.9052 14.6187 75.2925 14.8193 75.7592 14.978C76.2258 15.1273 76.7112 15.202 77.2152 15.202C77.8872 15.202 78.3818 15.0993 78.6992 14.894C79.0258 14.6793 79.1892 14.3807 79.1892 13.998C79.1892 13.7273 79.1005 13.5173 78.9232 13.368C78.7458 13.2093 78.5218 13.0927 78.2512 13.018C77.9805 12.934 77.6212 12.8547 77.1732 12.78C76.5758 12.668 76.0952 12.556 75.7312 12.444C75.3672 12.3227 75.0545 12.122 74.7932 11.842C74.5412 11.562 74.4152 11.1747 74.4152 10.68C74.4152 10.064 74.6718 9.56 75.1852 9.168C75.6985 8.776 76.4125 8.58 77.3272 8.58C77.8032 8.58 78.2792 8.64533 78.7552 8.776C79.2312 8.89733 79.6232 9.06067 79.9312 9.266L79.4972 10.064C78.8905 9.644 78.1672 9.434 77.3272 9.434C76.6925 9.434 76.2118 9.546 75.8852 9.77C75.5678 9.994 75.4092 10.288 75.4092 10.652C75.4092 10.932 75.4978 11.156 75.6752 11.324C75.8618 11.492 76.0905 11.618 76.3612 11.702C76.6318 11.7767 77.0052 11.856 77.4812 11.94C78.0692 12.052 78.5405 12.164 78.8952 12.276C79.2498 12.388 79.5532 12.5793 79.8052 12.85C80.0572 13.1207 80.1832 13.494 80.1832 13.97C80.1832 14.614 79.9125 15.1273 79.3712 15.51C78.8392 15.8833 78.0972 16.07 77.1452 16.07ZM85.7728 8.58C86.6968 8.58 87.4294 8.85067 87.9708 9.392C88.5214 9.924 88.7968 10.7033 88.7968 11.73V16H87.8028V11.828C87.8028 11.0627 87.6114 10.4793 87.2288 10.078C86.8461 9.67667 86.3001 9.476 85.5908 9.476C84.7974 9.476 84.1674 9.714 83.7008 10.19C83.2434 10.6567 83.0148 11.3053 83.0148 12.136V16H82.0208V5.612H83.0148V9.924C83.2854 9.49467 83.6588 9.16333 84.1348 8.93C84.6108 8.69667 85.1568 8.58 85.7728 8.58ZM97.9347 12.626H91.7747C91.8307 13.3913 92.1247 14.012 92.6567 14.488C93.1887 14.9547 93.8607 15.188 94.6727 15.188C95.1301 15.188 95.5501 15.1087 95.9327 14.95C96.3154 14.782 96.6467 14.5393 96.9267 14.222L97.4867 14.866C97.1601 15.258 96.7494 15.5567 96.2547 15.762C95.7694 15.9673 95.2327 16.07 94.6447 16.07C93.8887 16.07 93.2167 15.9113 92.6287 15.594C92.0501 15.2673 91.5974 14.8193 91.2707 14.25C90.9441 13.6807 90.7807 13.0367 90.7807 12.318C90.7807 11.5993 90.9347 10.9553 91.2427 10.386C91.5601 9.81667 91.9894 9.37333 92.5307 9.056C93.0814 8.73867 93.6974 8.58 94.3787 8.58C95.0601 8.58 95.6714 8.73867 96.2127 9.056C96.7541 9.37333 97.1787 9.81667 97.4867 10.386C97.7947 10.946 97.9487 11.59 97.9487 12.318L97.9347 12.626ZM94.3787 9.434C93.6694 9.434 93.0721 9.66267 92.5867 10.12C92.1107 10.568 91.8401 11.156 91.7747 11.884H96.9967C96.9314 11.156 96.6561 10.568 96.1707 10.12C95.6947 9.66267 95.0974 9.434 94.3787 9.434ZM101.946 16.07C101.349 16.07 100.775 15.986 100.224 15.818C99.6826 15.6407 99.2579 15.4213 98.9499 15.16L99.3979 14.376C99.7059 14.6187 100.093 14.8193 100.56 14.978C101.027 15.1273 101.512 15.202 102.016 15.202C102.688 15.202 103.183 15.0993 103.5 14.894C103.827 14.6793 103.99 14.3807 103.99 13.998C103.99 13.7273 103.901 13.5173 103.724 13.368C103.547 13.2093 103.323 13.0927 103.052 13.018C102.781 12.934 102.422 12.8547 101.974 12.78C101.377 12.668 100.896 12.556 100.532 12.444C100.168 12.3227 99.8553 12.122 99.5939 11.842C99.3419 11.562 99.2159 11.1747 99.2159 10.68C99.2159 10.064 99.4726 9.56 99.9859 9.168C100.499 8.776 101.213 8.58 102.128 8.58C102.604 8.58 103.08 8.64533 103.556 8.776C104.032 8.89733 104.424 9.06067 104.732 9.266L104.298 10.064C103.691 9.644 102.968 9.434 102.128 9.434C101.493 9.434 101.013 9.546 100.686 9.77C100.369 9.994 100.21 10.288 100.21 10.652C100.21 10.932 100.299 11.156 100.476 11.324C100.663 11.492 100.891 11.618 101.162 11.702C101.433 11.7767 101.806 11.856 102.282 11.94C102.87 12.052 103.341 12.164 103.696 12.276C104.051 12.388 104.354 12.5793 104.606 12.85C104.858 13.1207 104.984 13.494 104.984 13.97C104.984 14.614 104.713 15.1273 104.172 15.51C103.64 15.8833 102.898 16.07 101.946 16.07ZM110.7 15.552C110.513 15.72 110.28 15.8507 110 15.944C109.729 16.028 109.444 16.07 109.146 16.07C108.455 16.07 107.923 15.8833 107.55 15.51C107.176 15.1367 106.99 14.6093 106.99 13.928V9.476H105.674V8.636H106.99V7.026H107.984V8.636H110.224V9.476H107.984V13.872C107.984 14.3107 108.091 14.6467 108.306 14.88C108.53 15.104 108.847 15.216 109.258 15.216C109.463 15.216 109.659 15.1833 109.846 15.118C110.042 15.0527 110.21 14.9593 110.35 14.838L110.7 15.552ZM118.56 8.636L115.284 16H114.262L111 8.636H112.036L114.794 14.908L117.58 8.636H118.56ZM119.96 8.636H120.954V16H119.96V8.636ZM120.464 7.026C120.259 7.026 120.086 6.956 119.946 6.816C119.806 6.676 119.736 6.508 119.736 6.312C119.736 6.12533 119.806 5.962 119.946 5.822C120.086 5.682 120.259 5.612 120.464 5.612C120.67 5.612 120.842 5.682 120.982 5.822C121.122 5.95267 121.192 6.11133 121.192 6.298C121.192 6.50333 121.122 6.676 120.982 6.816C120.842 6.956 120.67 7.026 120.464 7.026ZM130.132 12.626H123.972C124.028 13.3913 124.322 14.012 124.854 14.488C125.386 14.9547 126.058 15.188 126.87 15.188C127.327 15.188 127.747 15.1087 128.13 14.95C128.513 14.782 128.844 14.5393 129.124 14.222L129.684 14.866C129.357 15.258 128.947 15.5567 128.452 15.762C127.967 15.9673 127.43 16.07 126.842 16.07C126.086 16.07 125.414 15.9113 124.826 15.594C124.247 15.2673 123.795 14.8193 123.468 14.25C123.141 13.6807 122.978 13.0367 122.978 12.318C122.978 11.5993 123.132 10.9553 123.44 10.386C123.757 9.81667 124.187 9.37333 124.728 9.056C125.279 8.73867 125.895 8.58 126.576 8.58C127.257 8.58 127.869 8.73867 128.41 9.056C128.951 9.37333 129.376 9.81667 129.684 10.386C129.992 10.946 130.146 11.59 130.146 12.318L130.132 12.626ZM126.576 9.434C125.867 9.434 125.269 9.66267 124.784 10.12C124.308 10.568 124.037 11.156 123.972 11.884H129.194C129.129 11.156 128.853 10.568 128.368 10.12C127.892 9.66267 127.295 9.434 126.576 9.434ZM141.353 8.58C142.277 8.58 143.001 8.846 143.523 9.378C144.055 9.91 144.321 10.694 144.321 11.73V16H143.327V11.828C143.327 11.0627 143.141 10.4793 142.767 10.078C142.403 9.67667 141.885 9.476 141.213 9.476C140.448 9.476 139.846 9.714 139.407 10.19C138.969 10.6567 138.749 11.3053 138.749 12.136V16H137.755V11.828C137.755 11.0627 137.569 10.4793 137.195 10.078C136.831 9.67667 136.309 9.476 135.627 9.476C134.871 9.476 134.269 9.714 133.821 10.19C133.383 10.6567 133.163 11.3053 133.163 12.136V16H132.169V8.636H133.121V9.98C133.383 9.532 133.747 9.18667 134.213 8.944C134.68 8.70133 135.217 8.58 135.823 8.58C136.439 8.58 136.971 8.71067 137.419 8.972C137.877 9.23333 138.217 9.62067 138.441 10.134C138.712 9.64867 139.099 9.27067 139.603 9C140.117 8.72 140.7 8.58 141.353 8.58ZM153.456 12.626H147.296C147.352 13.3913 147.646 14.012 148.178 14.488C148.71 14.9547 149.382 15.188 150.194 15.188C150.652 15.188 151.072 15.1087 151.454 14.95C151.837 14.782 152.168 14.5393 152.448 14.222L153.008 14.866C152.682 15.258 152.271 15.5567 151.776 15.762C151.291 15.9673 150.754 16.07 150.166 16.07C149.41 16.07 148.738 15.9113 148.15 15.594C147.572 15.2673 147.119 14.8193 146.792 14.25C146.466 13.6807 146.302 13.0367 146.302 12.318C146.302 11.5993 146.456 10.9553 146.764 10.386C147.082 9.81667 147.511 9.37333 148.052 9.056C148.603 8.73867 149.219 8.58 149.9 8.58C150.582 8.58 151.193 8.73867 151.734 9.056C152.276 9.37333 152.7 9.81667 153.008 10.386C153.316 10.946 153.47 11.59 153.47 12.318L153.456 12.626ZM149.9 9.434C149.191 9.434 148.594 9.66267 148.108 10.12C147.632 10.568 147.362 11.156 147.296 11.884H152.518C152.453 11.156 152.178 10.568 151.692 10.12C151.216 9.66267 150.619 9.434 149.9 9.434ZM158.545 16.07C157.817 16.07 157.164 15.9113 156.585 15.594C156.016 15.2767 155.568 14.8333 155.241 14.264C154.915 13.6853 154.751 13.0367 154.751 12.318C154.751 11.5993 154.915 10.9553 155.241 10.386C155.568 9.81667 156.016 9.37333 156.585 9.056C157.164 8.73867 157.817 8.58 158.545 8.58C159.18 8.58 159.745 8.706 160.239 8.958C160.743 9.20067 161.14 9.56 161.429 10.036L160.687 10.54C160.445 10.176 160.137 9.90533 159.763 9.728C159.39 9.54133 158.984 9.448 158.545 9.448C158.013 9.448 157.533 9.56933 157.103 9.812C156.683 10.0453 156.352 10.3813 156.109 10.82C155.876 11.2587 155.759 11.758 155.759 12.318C155.759 12.8873 155.876 13.3913 156.109 13.83C156.352 14.2593 156.683 14.5953 157.103 14.838C157.533 15.0713 158.013 15.188 158.545 15.188C158.984 15.188 159.39 15.0993 159.763 14.922C160.137 14.7447 160.445 14.474 160.687 14.11L161.429 14.614C161.14 15.09 160.743 15.454 160.239 15.706C159.735 15.9487 159.171 16.07 158.545 16.07ZM167.025 8.58C167.949 8.58 168.681 8.85067 169.223 9.392C169.773 9.924 170.049 10.7033 170.049 11.73V16H169.055V11.828C169.055 11.0627 168.863 10.4793 168.481 10.078C168.098 9.67667 167.552 9.476 166.843 9.476C166.049 9.476 165.419 9.714 164.953 10.19C164.495 10.6567 164.267 11.3053 164.267 12.136V16H163.273V5.612H164.267V9.924C164.537 9.49467 164.911 9.16333 165.387 8.93C165.863 8.69667 166.409 8.58 167.025 8.58ZM176.625 15.552C176.439 15.72 176.205 15.8507 175.925 15.944C175.655 16.028 175.37 16.07 175.071 16.07C174.381 16.07 173.849 15.8833 173.475 15.51C173.102 15.1367 172.915 14.6093 172.915 13.928V9.476H171.599V8.636H172.915V7.026H173.909V8.636H176.149V9.476H173.909V13.872C173.909 14.3107 174.017 14.6467 174.231 14.88C174.455 15.104 174.773 15.216 175.183 15.216C175.389 15.216 175.585 15.1833 175.771 15.118C175.967 15.0527 176.135 14.9593 176.275 14.838L176.625 15.552ZM181.011 8.58C181.972 8.58 182.709 8.82267 183.223 9.308C183.736 9.784 183.993 10.4933 183.993 11.436V16H183.041V14.852C182.817 15.2347 182.485 15.5333 182.047 15.748C181.617 15.9627 181.104 16.07 180.507 16.07C179.685 16.07 179.032 15.874 178.547 15.482C178.061 15.09 177.819 14.572 177.819 13.928C177.819 13.3027 178.043 12.7987 178.491 12.416C178.948 12.0333 179.671 11.842 180.661 11.842H182.999V11.394C182.999 10.7593 182.821 10.2787 182.467 9.952C182.112 9.616 181.594 9.448 180.913 9.448C180.446 9.448 179.998 9.52733 179.569 9.686C179.139 9.83533 178.771 10.0453 178.463 10.316L178.015 9.574C178.388 9.25667 178.836 9.014 179.359 8.846C179.881 8.66867 180.432 8.58 181.011 8.58ZM180.661 15.286C181.221 15.286 181.701 15.16 182.103 14.908C182.504 14.6467 182.803 14.2733 182.999 13.788V12.584H180.689C179.429 12.584 178.799 13.0227 178.799 13.9C178.799 14.3293 178.962 14.67 179.289 14.922C179.615 15.1647 180.073 15.286 180.661 15.286ZM192.573 6.116C193.823 6.116 194.939 6.37733 195.919 6.9C196.908 7.41333 197.678 8.14133 198.229 9.084C198.779 10.0173 199.055 11.086 199.055 12.29C199.055 13.4753 198.849 14.404 198.439 15.076C198.028 15.7387 197.459 16.07 196.731 16.07C196.273 16.07 195.9 15.9347 195.611 15.664C195.331 15.3933 195.177 15.02 195.149 14.544C194.869 15.0293 194.486 15.4073 194.001 15.678C193.515 15.9393 192.965 16.07 192.349 16.07C191.695 16.07 191.103 15.916 190.571 15.608C190.048 15.2907 189.633 14.8567 189.325 14.306C189.026 13.7553 188.877 13.1347 188.877 12.444C188.877 11.7533 189.026 11.1373 189.325 10.596C189.633 10.0453 190.048 9.616 190.571 9.308C191.103 9 191.695 8.846 192.349 8.846C192.946 8.846 193.483 8.97667 193.959 9.238C194.444 9.49 194.831 9.84933 195.121 10.316V8.902H196.031V14.208C196.031 14.5813 196.11 14.852 196.269 15.02C196.427 15.188 196.637 15.272 196.899 15.272C197.337 15.272 197.683 15.0107 197.935 14.488C198.196 13.9653 198.327 13.2373 198.327 12.304C198.327 11.2213 198.084 10.2693 197.599 9.448C197.113 8.61733 196.432 7.97333 195.555 7.516C194.687 7.05867 193.693 6.83 192.573 6.83C191.443 6.83 190.44 7.068 189.563 7.544C188.695 8.01067 188.018 8.67333 187.533 9.532C187.047 10.3813 186.805 11.352 186.805 12.444C186.805 13.536 187.043 14.5113 187.519 15.37C188.004 16.2287 188.676 16.896 189.535 17.372C190.403 17.848 191.397 18.086 192.517 18.086C192.955 18.086 193.413 18.0347 193.889 17.932C194.374 17.8293 194.813 17.6753 195.205 17.47L195.443 18.156C195.041 18.3613 194.575 18.52 194.043 18.632C193.52 18.744 193.011 18.8 192.517 18.8C191.247 18.8 190.123 18.5293 189.143 17.988C188.163 17.4467 187.397 16.6953 186.847 15.734C186.305 14.7633 186.035 13.6667 186.035 12.444C186.035 11.212 186.31 10.12 186.861 9.168C187.411 8.20667 188.181 7.46 189.171 6.928C190.169 6.38667 191.303 6.116 192.573 6.116ZM192.475 15.258C192.979 15.258 193.431 15.1413 193.833 14.908C194.234 14.6747 194.551 14.348 194.785 13.928C195.018 13.4987 195.135 13.004 195.135 12.444C195.135 11.8933 195.018 11.408 194.785 10.988C194.551 10.5587 194.234 10.232 193.833 10.008C193.431 9.77467 192.979 9.658 192.475 9.658C191.961 9.658 191.499 9.77467 191.089 10.008C190.687 10.2413 190.37 10.568 190.137 10.988C189.913 11.408 189.801 11.8933 189.801 12.444C189.801 12.9947 189.913 13.4847 190.137 13.914C190.37 14.334 190.687 14.6653 191.089 14.908C191.499 15.1413 191.961 15.258 192.475 15.258ZM207.975 8.636V15.104C207.975 16.3547 207.667 17.2787 207.051 17.876C206.445 18.4827 205.525 18.786 204.293 18.786C203.612 18.786 202.963 18.6833 202.347 18.478C201.741 18.282 201.246 18.0067 200.863 17.652L201.367 16.896C201.722 17.2133 202.151 17.4607 202.655 17.638C203.169 17.8153 203.705 17.904 204.265 17.904C205.199 17.904 205.885 17.6847 206.323 17.246C206.762 16.8167 206.981 16.1447 206.981 15.23V14.292C206.673 14.7587 206.267 15.1133 205.763 15.356C205.269 15.5987 204.718 15.72 204.111 15.72C203.421 15.72 202.791 15.5707 202.221 15.272C201.661 14.964 201.218 14.5393 200.891 13.998C200.574 13.4473 200.415 12.8267 200.415 12.136C200.415 11.4453 200.574 10.8293 200.891 10.288C201.218 9.74667 201.661 9.32667 202.221 9.028C202.781 8.72933 203.411 8.58 204.111 8.58C204.737 8.58 205.301 8.706 205.805 8.958C206.309 9.21 206.715 9.574 207.023 10.05V8.636H207.975ZM204.209 14.838C204.741 14.838 205.222 14.726 205.651 14.502C206.081 14.2687 206.412 13.9467 206.645 13.536C206.888 13.1253 207.009 12.6587 207.009 12.136C207.009 11.6133 206.888 11.1513 206.645 10.75C206.412 10.3393 206.081 10.022 205.651 9.798C205.231 9.56467 204.751 9.448 204.209 9.448C203.677 9.448 203.197 9.56 202.767 9.784C202.347 10.008 202.016 10.3253 201.773 10.736C201.54 11.1467 201.423 11.6133 201.423 12.136C201.423 12.6587 201.54 13.1253 201.773 13.536C202.016 13.9467 202.347 14.2687 202.767 14.502C203.197 14.726 203.677 14.838 204.209 14.838ZM219.939 8.58C220.863 8.58 221.586 8.846 222.109 9.378C222.641 9.91 222.907 10.694 222.907 11.73V16H221.913V11.828C221.913 11.0627 221.726 10.4793 221.353 10.078C220.989 9.67667 220.471 9.476 219.799 9.476C219.034 9.476 218.432 9.714 217.993 10.19C217.554 10.6567 217.335 11.3053 217.335 12.136V16H216.341V11.828C216.341 11.0627 216.154 10.4793 215.781 10.078C215.417 9.67667 214.894 9.476 214.213 9.476C213.457 9.476 212.855 9.714 212.407 10.19C211.968 10.6567 211.749 11.3053 211.749 12.136V16H210.755V8.636H211.707V9.98C211.968 9.532 212.332 9.18667 212.799 8.944C213.266 8.70133 213.802 8.58 214.409 8.58C215.025 8.58 215.557 8.71067 216.005 8.972C216.462 9.23333 216.803 9.62067 217.027 10.134C217.298 9.64867 217.685 9.27067 218.189 9C218.702 8.72 219.286 8.58 219.939 8.58ZM228.179 8.58C229.14 8.58 229.877 8.82267 230.391 9.308C230.904 9.784 231.161 10.4933 231.161 11.436V16H230.209V14.852C229.985 15.2347 229.653 15.5333 229.215 15.748C228.785 15.9627 228.272 16.07 227.675 16.07C226.853 16.07 226.2 15.874 225.715 15.482C225.229 15.09 224.987 14.572 224.987 13.928C224.987 13.3027 225.211 12.7987 225.659 12.416C226.116 12.0333 226.839 11.842 227.829 11.842H230.167V11.394C230.167 10.7593 229.989 10.2787 229.635 9.952C229.28 9.616 228.762 9.448 228.081 9.448C227.614 9.448 227.166 9.52733 226.737 9.686C226.307 9.83533 225.939 10.0453 225.631 10.316L225.183 9.574C225.556 9.25667 226.004 9.014 226.527 8.846C227.049 8.66867 227.6 8.58 228.179 8.58ZM227.829 15.286C228.389 15.286 228.869 15.16 229.271 14.908C229.672 14.6467 229.971 14.2733 230.167 13.788V12.584H227.857C226.597 12.584 225.967 13.0227 225.967 13.9C225.967 14.3293 226.13 14.67 226.457 14.922C226.783 15.1647 227.241 15.286 227.829 15.286ZM233.861 8.636H234.855V16H233.861V8.636ZM234.365 7.026C234.159 7.026 233.987 6.956 233.847 6.816C233.707 6.676 233.637 6.508 233.637 6.312C233.637 6.12533 233.707 5.962 233.847 5.822C233.987 5.682 234.159 5.612 234.365 5.612C234.57 5.612 234.743 5.682 234.883 5.822C235.023 5.95267 235.093 6.11133 235.093 6.298C235.093 6.50333 235.023 6.676 234.883 6.816C234.743 6.956 234.57 7.026 234.365 7.026ZM237.62 5.612H238.614V16H237.62V5.612ZM241.478 16.07C241.273 16.07 241.095 15.9953 240.946 15.846C240.806 15.6967 240.736 15.5147 240.736 15.3C240.736 15.0853 240.806 14.908 240.946 14.768C241.095 14.6187 241.273 14.544 241.478 14.544C241.683 14.544 241.861 14.6187 242.01 14.768C242.159 14.908 242.234 15.0853 242.234 15.3C242.234 15.5147 242.159 15.6967 242.01 15.846C241.861 15.9953 241.683 16.07 241.478 16.07ZM245.299 10.078C245.532 9.58333 245.878 9.21 246.335 8.958C246.802 8.706 247.376 8.58 248.057 8.58V9.546L247.819 9.532C247.044 9.532 246.438 9.77 245.999 10.246C245.56 10.722 245.341 11.3893 245.341 12.248V16H244.347V8.636H245.299V10.078ZM256.602 8.636V16H255.65V14.656C255.389 15.104 255.029 15.454 254.572 15.706C254.115 15.9487 253.592 16.07 253.004 16.07C252.043 16.07 251.282 15.804 250.722 15.272C250.171 14.7307 249.896 13.942 249.896 12.906V8.636H250.89V12.808C250.89 13.5827 251.081 14.1707 251.464 14.572C251.847 14.9733 252.393 15.174 253.102 15.174C253.877 15.174 254.488 14.9407 254.936 14.474C255.384 13.998 255.608 13.34 255.608 12.5V8.636H256.602Z" fill="#FE7865"/>
</svg>
